# xmcd
#
# Track frame offsets: 
#        150
#        17150
#        35714
#        55034
#        73491
#        84325
#        101550
#        117395
#        131716
#
# Disc length: 1940 seconds
#
# Revision: 0
# Processed by: cddbd v1.5.2PL0 Copyright (c) Steve Scherf et al.
# Submitted via: ExactAudioCopyFreeDBPlugin 1.0
#
DISCID=7e079209
DTITLE=Brett Spaulding and The Psychic Spies - Livin' To Play
DYEAR=2018
DGENRE=blues
TTITLE0=Livin' To Play
TTITLE1=Driveby
TTITLE2=The Ride
TTITLE3=Can't Stop
TTITLE4=Waiting
TTITLE5=The Lucky One
TTITLE6=City Walls
TTITLE7=Everyday
TTITLE8=Little Differences
EXTD=
EXTT0=
EXTT1=
EXTT2=
EXTT3=
EXTT4=
EXTT5=
EXTT6=
EXTT7=
EXTT8=
PLAYORDER=
